<svg version="1.1" id="Layer_1" xmlns="http://www.w3.org/2000/svg" xmlns:xlink="http://www.w3.org/1999/xlink" x="0px" y="0px"
	 width="100%" viewBox="0 0 1920 1080" preserveAspectRatio="none" enable-background="new 0 0 1920 1080" xml:space="preserve">
<path fill="none" opacity="1.000000" stroke="none" 
	d="
M593.000000,1081.000000 
	C395.681946,1081.000000 198.363861,1081.000000 1.022901,1081.000000 
	C1.022901,721.043091 1.022901,361.086243 1.022901,1.064679 
	C640.907349,1.064679 1280.814697,1.064679 1920.861084,1.064679 
	C1920.861084,360.879456 1920.861084,720.759033 1920.861084,1081.000000 
	C1723.969238,1081.000000 1526.938232,1081.000000 1329.437256,1080.531494 
	C1328.991577,944.071533 1329.015381,808.080017 1329.040039,672.088440 
	C1329.049072,621.925110 1329.090576,571.761658 1328.962891,521.598633 
	C1328.957520,519.498047 1327.997803,516.442993 1326.446167,515.446411 
	C1302.388794,499.995331 1300.304199,468.296173 1322.173584,450.075867 
	C1323.881226,448.653168 1325.220215,445.760284 1325.257690,443.525940 
	C1325.518188,428.031616 1325.309937,412.529785 1325.488281,397.033081 
	C1325.509399,395.194122 1326.466187,392.790863 1327.826538,391.632324 
	C1340.060669,381.213837 1342.360474,367.534027 1339.474365,353.009796 
	C1336.474487,337.912811 1326.702026,328.139984 1311.708130,323.985931 
	C1309.099609,323.263245 1306.368042,322.985291 1303.277710,322.426880 
	C1316.708008,310.032623 1321.288574,295.469055 1314.810547,278.742035 
	C1308.375244,262.125519 1295.002197,254.604843 1277.209717,253.964401 
	C1286.405884,238.968384 1286.909790,224.179642 1277.254150,210.265335 
	C1266.274170,194.442535 1250.554565,190.618240 1232.025879,195.803558 
	C1237.084717,178.773148 1234.111694,163.957245 1220.600952,152.560699 
	C1206.998779,141.086777 1191.811279,141.277725 1176.131958,148.729523 
	C1175.647827,132.010437 1169.036011,118.894577 1153.629761,111.997719 
	C1135.223145,103.757607 1119.428955,109.039780 1105.892578,124.149170 
	C1106.408569,108.124878 1098.004883,99.333305 1084.487793,94.512680 
	C1080.429688,93.065399 1076.227295,91.855469 1071.990234,91.108231 
	C1058.229980,88.681511 1045.307861,84.028076 1033.401733,76.772560 
	C1005.118469,59.536964 983.130188,35.976185 965.240540,8.357188 
	C963.819763,6.163720 962.370117,3.988978 960.749634,1.525374 
	C959.605530,3.061600 958.715393,4.063854 958.038818,5.193990 
	C946.385925,24.658733 931.628174,41.552635 914.838806,56.664822 
	C897.671997,72.116623 878.498840,84.064766 855.648865,89.430756 
	C847.915161,91.246902 840.072388,93.156982 832.801208,96.250458 
	C822.440491,100.658371 816.020203,108.594437 815.758179,120.491768 
	C815.741760,121.235260 815.450562,121.972694 815.135864,123.398598 
	C802.768250,109.676865 788.215088,104.503288 771.135498,110.795624 
	C754.017029,117.102280 746.154541,130.463852 745.684326,148.420242 
	C729.656311,140.900116 714.596985,141.000443 700.994324,152.533508 
	C687.470215,163.999924 684.737610,178.775513 689.910706,195.578781 
	C672.167908,190.531052 657.119324,193.881805 645.886841,208.187378 
	C634.521057,222.662689 635.503601,238.207687 644.557922,253.780197 
	C626.425354,254.543106 613.191284,262.099365 606.797791,278.959717 
	C600.444153,295.715088 605.776306,309.997406 618.579895,322.409271 
	C617.101257,322.628387 616.468750,322.736572 615.832642,322.814301 
	C599.275269,324.838165 588.381470,333.994080 583.068237,349.580170 
	C578.069702,364.243256 583.035461,381.586395 594.232483,391.532715 
	C595.561462,392.713287 596.329102,395.188385 596.349854,397.074493 
	C596.520447,412.571564 596.339172,428.073120 596.592407,443.567993 
	C596.626282,445.641205 597.962891,448.351562 599.589050,449.640717 
	C620.764160,466.427185 620.092529,498.101349 597.732117,513.386536 
	C593.788757,516.082092 592.928284,518.730530 592.930359,523.036926 
	C593.019409,709.024597 593.003357,895.012268 593.000000,1081.000000 
z"/>
<path fill="#BF6363" opacity="1.000000" stroke="none" 
	d="
M593.468628,1081.000000 
	C593.003357,895.012268 593.019409,709.024597 592.930359,523.036926 
	C592.928284,518.730530 593.788757,516.082092 597.732117,513.386536 
	C620.092529,498.101349 620.764160,466.427185 599.589050,449.640717 
	C597.962891,448.351562 596.626282,445.641205 596.592407,443.567993 
	C596.339172,428.073120 596.520447,412.571564 596.349854,397.074493 
	C596.329102,395.188385 595.561462,392.713287 594.232483,391.532715 
	C583.035461,381.586395 578.069702,364.243256 583.068237,349.580170 
	C588.381470,333.994080 599.275269,324.838165 615.832642,322.814301 
	C616.468750,322.736572 617.101257,322.628387 618.579895,322.409271 
	C605.776306,309.997406 600.444153,295.715088 606.797791,278.959717 
	C613.191284,262.099365 626.425354,254.543106 644.557922,253.780197 
	C635.503601,238.207687 634.521057,222.662689 645.886841,208.187378 
	C657.119324,193.881805 672.167908,190.531052 689.910706,195.578781 
	C684.737610,178.775513 687.470215,163.999924 700.994324,152.533508 
	C714.596985,141.000443 729.656311,140.900116 745.684326,148.420242 
	C746.154541,130.463852 754.017029,117.102280 771.135498,110.795624 
	C788.215088,104.503288 802.768250,109.676865 815.135864,123.398598 
	C815.450562,121.972694 815.741760,121.235260 815.758179,120.491768 
	C816.020203,108.594437 822.440491,100.658371 832.801208,96.250458 
	C840.072388,93.156982 847.915161,91.246902 855.648865,89.430756 
	C878.498840,84.064766 897.671997,72.116623 914.838806,56.664822 
	C931.628174,41.552635 946.385925,24.658733 958.038818,5.193990 
	C958.715393,4.063854 959.605530,3.061600 960.749634,1.525374 
	C962.370117,3.988978 963.819763,6.163720 965.240540,8.357188 
	C983.130188,35.976185 1005.118469,59.536964 1033.401733,76.772560 
	C1045.307861,84.028076 1058.229980,88.681511 1071.990234,91.108231 
	C1076.227295,91.855469 1080.429688,93.065399 1084.487793,94.512680 
	C1098.004883,99.333305 1106.408569,108.124878 1105.892578,124.149170 
	C1119.428955,109.039780 1135.223145,103.757607 1153.629761,111.997719 
	C1169.036011,118.894577 1175.647827,132.010437 1176.131958,148.729523 
	C1191.811279,141.277725 1206.998779,141.086777 1220.600952,152.560699 
	C1234.111694,163.957245 1237.084717,178.773148 1232.025879,195.803558 
	C1250.554565,190.618240 1266.274170,194.442535 1277.254150,210.265335 
	C1286.909790,224.179642 1286.405884,238.968384 1277.209717,253.964401 
	C1295.002197,254.604843 1308.375244,262.125519 1314.810547,278.742035 
	C1321.288574,295.469055 1316.708008,310.032623 1303.277710,322.426880 
	C1306.368042,322.985291 1309.099609,323.263245 1311.708130,323.985931 
	C1326.702026,328.139984 1336.474487,337.912811 1339.474365,353.009796 
	C1342.360474,367.534027 1340.060669,381.213837 1327.826538,391.632324 
	C1326.466187,392.790863 1325.509399,395.194122 1325.488281,397.033081 
	C1325.309937,412.529785 1325.518188,428.031616 1325.257690,443.525940 
	C1325.220215,445.760284 1323.881226,448.653168 1322.173584,450.075867 
	C1300.304199,468.296173 1302.388794,499.995331 1326.446167,515.446411 
	C1327.997803,516.442993 1328.957520,519.498047 1328.962891,521.598633 
	C1329.090576,571.761658 1329.049072,621.925110 1329.040039,672.088440 
	C1329.015381,808.080017 1328.991577,944.071533 1328.983643,1080.531494 
	C1083.979126,1081.000000 838.958191,1081.000000 593.468628,1081.000000 
z"/>
</svg>