<svg xmlns="http://www.w3.org/2000/svg" xmlns:xlink="http://www.w3.org/1999/xlink" width="1080" zoomAndPan="magnify" viewBox="0 0 810 809.999993" height="1080" preserveAspectRatio="xMidYMid meet" version="1.0"><path fill="#c69b34" d="M 360.792969 808.527344 C 326.464844 804.261719 294.660156 792.46875 270.160156 774.925781 C 243.632812 755.929688 221.957031 725.453125 214.703125 696.957031 C 210.324219 679.753906 211.015625 657.71875 216.472656 640.40625 C 233.542969 586.269531 292.390625 556.234375 343.183594 575.742188 C 357.433594 581.214844 370.503906 593.023438 376.769531 606.082031 C 381.25 615.425781 382.757812 622.171875 382.726562 632.753906 C 382.65625 657.40625 367.515625 675.414062 345.6875 676.8125 C 339.332031 677.222656 337.417969 676.917969 332.683594 674.738281 C 325.046875 671.230469 321.027344 667.570312 317.886719 661.269531 C 313.066406 651.597656 315.09375 638.785156 322.25 633.6875 C 323.96875 632.460938 325.566406 631.460938 325.800781 631.460938 C 326.035156 631.460938 326.027344 634.183594 325.789062 637.507812 C 325.265625 644.746094 327.183594 649.21875 332.097656 652.21875 C 337.664062 655.613281 344.195312 654.519531 349.75 649.261719 C 354.632812 644.640625 356.011719 640.988281 356.074219 632.496094 C 356.121094 626.035156 355.648438 623.746094 353.269531 618.902344 C 344.261719 600.554688 319.925781 591.429688 294.308594 596.792969 C 275.328125 600.765625 256.6875 615.070312 247.957031 632.363281 C 242.214844 643.738281 240.164062 652.523438 240.195312 665.640625 C 240.234375 684.019531 245.734375 699.609375 257.917969 715.878906 C 278.019531 742.71875 308.617188 760.355469 347.210938 767.339844 C 363.453125 770.277344 393.78125 770.484375 408.957031 767.757812 C 431.363281 763.734375 455.980469 753.429688 473.765625 740.621094 C 497.433594 723.582031 517.042969 695.699219 524.160156 668.960938 C 526.492188 660.210938 526.847656 656.761719 526.894531 642.335938 C 526.960938 623.847656 525.242188 614.367188 519.183594 599.824219 C 510.773438 579.613281 499.125 565.050781 473.765625 543.035156 C 454.171875 526.027344 446.785156 517.914062 441.214844 507.296875 C 433.851562 493.253906 434.097656 478.394531 441.867188 468.058594 L 444.402344 464.6875 L 445.03125 469.988281 C 446.558594 482.898438 455.171875 492.472656 477.929688 506.570312 C 498.058594 519.039062 506.042969 525.164062 516.503906 536.15625 C 535.695312 556.324219 547.757812 580.210938 552.59375 607.636719 C 554.785156 620.078125 554.265625 647.429688 551.59375 659.898438 C 550.378906 665.566406 549.546875 670.367188 549.738281 670.5625 C 550.242188 671.0625 554.457031 655.171875 556.265625 645.960938 C 557.253906 640.921875 557.972656 628.726562 558.308594 611.261719 C 558.792969 586.109375 558.617188 582.414062 555.625 555.328125 C 550.753906 511.265625 550.304688 500.878906 550.59375 439.316406 C 550.855469 383.683594 550.804688 382.046875 548.476562 369.402344 C 542.796875 338.59375 532.378906 317.933594 512.679688 298.398438 C 506.902344 292.671875 498.449219 285.53125 493.894531 282.527344 C 482.046875 274.722656 460.929688 264.496094 447.460938 260.039062 C 441.09375 257.9375 431.925781 254.78125 427.082031 253.027344 C 418.984375 250.097656 418.527344 249.785156 421.386719 249.148438 C 426.347656 248.046875 438.246094 248.121094 450.46875 249.339844 C 497.203125 253.988281 532.488281 272.429688 556.328125 304.664062 C 566.175781 317.976562 575.636719 338.148438 580.863281 356.972656 C 588.375 384.003906 589.703125 399.238281 589.703125 458.1875 C 589.703125 490.539062 590.269531 516.851562 591.371094 535.878906 C 595.230469 602.519531 590.207031 645.085938 574.035156 682.796875 C 545.734375 748.773438 487.898438 793.949219 415.691406 806.480469 C 400.933594 809.042969 373.242188 810.074219 360.792969 808.527344 Z M 183.382812 616.957031 C 174.644531 595.519531 174.382812 564.671875 182.730469 540.164062 C 191.691406 513.851562 209.816406 490.785156 234.148438 474.730469 C 239.710938 471.054688 252.421875 463.757812 262.390625 458.507812 C 285.601562 446.285156 295.976562 439.296875 306.472656 428.804688 C 328.339844 406.953125 338.984375 379.894531 337.808594 349.144531 C 337.296875 335.816406 337.542969 335.65625 342.796875 345.898438 C 350.933594 361.757812 354.578125 378.339844 354.5625 399.441406 C 354.542969 422.742188 349.574219 440.488281 338.15625 458.003906 C 330.652344 469.519531 325.390625 475.464844 315.890625 483.167969 C 305.792969 491.351562 299.550781 494.953125 273.667969 507.546875 C 247.273438 520.386719 235.242188 528.148438 222.144531 540.792969 C 209.378906 553.113281 203.53125 561.011719 196.035156 576.042969 C 189.796875 588.558594 186.351562 599.589844 184.824219 611.960938 C 184.378906 615.566406 183.730469 617.8125 183.382812 616.957031 Z M 633.726562 518.058594 C 625.761719 516.300781 616.460938 512.789062 610.472656 509.273438 C 604.855469 505.972656 604.402344 504.195312 604.28125 484.949219 L 604.207031 472.578125 L 607.179688 477.179688 C 613.507812 486.984375 622.125 492.335938 636.492188 495.386719 C 645.648438 497.332031 662.164062 496.804688 670.132812 494.3125 C 677.25 492.085938 687.148438 485.347656 690.585938 480.390625 C 694.964844 474.074219 695.519531 465.203125 691.214844 470.390625 C 689.15625 472.871094 684.347656 472.261719 680.769531 469.0625 C 678.3125 466.867188 677.429688 465.078125 677.066406 461.554688 C 676.070312 451.945312 684.363281 444.4375 695.042969 445.273438 C 708.449219 446.324219 717.429688 460.394531 714.9375 476.441406 C 710.953125 502.054688 684.859375 519.722656 651.335938 519.503906 C 645.070312 519.460938 637.144531 518.8125 633.726562 518.058594 Z M 136.800781 490.507812 C 133.234375 488.429688 134.902344 482.304688 139.035156 482.304688 C 144.105469 482.304688 146.03125 486.640625 142.414062 489.914062 C 140.242188 491.878906 139.324219 491.976562 136.800781 490.507812 Z M 124.121094 468.421875 C 122.640625 466.484375 119.125 459.3125 116.308594 452.484375 C 107.289062 430.628906 100.355469 403.445312 97.109375 377.1875 C 95.148438 361.335938 95.761719 358.007812 100.652344 358.007812 C 102.308594 358.007812 104.203125 358.660156 104.863281 359.457031 C 105.527344 360.253906 106.546875 365.265625 107.136719 370.59375 C 110.386719 400.0625 118.113281 429.765625 128.832031 454.007812 C 131.648438 460.378906 133.953125 466.296875 133.953125 467.15625 C 133.953125 468.84375 130.148438 471.945312 128.078125 471.945312 C 127.378906 471.945312 125.597656 470.359375 124.121094 468.421875 Z M 168.148438 448.773438 C 134.660156 389.429688 127.402344 368.660156 127.390625 332.113281 C 127.382812 309.304688 130.320312 293.824219 138.484375 273.65625 C 154.023438 235.265625 186.378906 205.433594 227.175781 191.890625 C 270.3125 177.566406 311.628906 181.09375 343.347656 201.8125 C 363.015625 214.65625 376.410156 232.800781 382.738281 255.164062 C 386.179688 267.320312 385.9375 285.816406 382.175781 298.238281 C 380.660156 303.25 377.972656 310.210938 376.207031 313.707031 C 373.121094 319.824219 367.046875 328.878906 365.972656 328.964844 C 365.6875 328.988281 365.617188 324.53125 365.816406 319.058594 C 367.226562 280.375 346.953125 244.671875 314.699219 229.035156 C 309.570312 226.546875 302.503906 223.785156 298.992188 222.890625 C 279.332031 217.902344 254.433594 219.292969 231.316406 226.675781 C 214.898438 231.917969 198.390625 241.15625 188.332031 250.734375 C 183.59375 255.242188 183.511719 255.394531 187.378906 252.507812 C 199.015625 243.820312 215.675781 236.882812 231.539062 234.121094 C 244.742188 231.816406 267.695312 232.617188 280 235.804688 C 305.285156 242.355469 323.21875 256.050781 337.625 279.804688 C 340.835938 285.097656 347.769531 301.976562 347.035156 302.710938 C 346.8125 302.9375 345.503906 301.542969 344.128906 299.621094 C 335.371094 287.359375 321.613281 275.664062 308.484375 269.324219 C 293.914062 262.285156 288.53125 261.210938 268.089844 261.269531 C 249.285156 261.320312 242.367188 262.53125 228.238281 268.238281 C 211.796875 274.878906 195.058594 287.835938 184.121094 302.382812 C 172.082031 318.398438 165.199219 339.175781 164.273438 362.304688 C 163.480469 382.164062 165.113281 394.207031 173.875 433.105469 C 177.992188 451.371094 181.851562 471.019531 181.398438 471.414062 C 181.222656 471.566406 175.261719 461.378906 168.148438 448.773438 Z M 636.523438 447.914062 C 635.839844 447.230469 635.28125 445.695312 635.28125 444.496094 C 635.28125 443.300781 635.839844 441.761719 636.523438 441.078125 C 637.207031 440.394531 638.746094 439.835938 639.941406 439.835938 C 641.136719 439.835938 642.675781 440.394531 643.359375 441.078125 C 644.042969 441.761719 644.601562 443.300781 644.601562 444.496094 C 644.601562 445.695312 644.042969 447.230469 643.359375 447.914062 C 642.675781 448.597656 641.136719 449.160156 639.941406 449.160156 C 638.746094 449.160156 637.207031 448.597656 636.523438 447.914062 Z M 646.414062 428.359375 C 643.742188 426.804688 644.117188 424.28125 649.285156 409.046875 C 664.722656 363.546875 668.121094 319.972656 659.554688 277.386719 C 654.707031 253.292969 643.203125 222.769531 630.859375 201.265625 C 626.371094 193.449219 625.75 191.726562 626.582031 189.355469 C 627.316406 187.246094 628.34375 186.503906 630.878906 186.257812 C 633.863281 185.96875 634.539062 186.453125 637.375 190.921875 C 646.910156 205.9375 658.945312 233.402344 664.75 253.390625 C 672.507812 280.101562 675.058594 297.566406 675.039062 323.828125 C 675.019531 352.589844 670.597656 379.25 660.996094 408.476562 C 654.472656 428.339844 652.050781 431.640625 646.414062 428.359375 Z M 517.199219 400.851562 C 517.199219 395.574219 512.960938 373.359375 510.425781 365.328125 C 505.570312 349.960938 494.472656 336.304688 480.480469 328.480469 C 466.417969 320.613281 451.042969 317.042969 415.429688 313.363281 C 408.738281 312.671875 403.261719 311.800781 403.261719 311.429688 C 403.261719 309.664062 428.8125 304.472656 443.464844 303.257812 C 470.089844 301.046875 487.699219 306.503906 502.792969 321.640625 C 514.769531 333.648438 520.203125 346.210938 522.375 366.898438 C 523.390625 376.578125 522.605469 387.8125 520.1875 398.144531 C 518.835938 403.921875 517.199219 405.402344 517.199219 400.851562 Z M 503.851562 390.335938 C 501.792969 385.457031 499.675781 384.699219 490.375 385.511719 C 483.390625 386.121094 481.621094 385.914062 477.234375 383.972656 C 468.410156 380.070312 464.375 374.800781 463.382812 365.890625 L 462.820312 360.824219 L 457.121094 359.378906 C 448.644531 357.222656 442.65625 353.988281 437.378906 348.71875 C 432.703125 344.042969 427.851562 335.523438 426.457031 329.523438 C 425.753906 326.492188 425.871094 326.542969 431.355469 331.695312 C 434.449219 334.597656 438.0625 337.550781 439.382812 338.257812 C 445.449219 341.503906 454.429688 343.640625 466.269531 344.652344 C 473.324219 345.253906 480.914062 346.390625 483.140625 347.175781 C 497.957031 352.402344 506.242188 366.398438 505.589844 385.09375 C 505.292969 393.527344 505.25 393.660156 503.851562 390.335938 Z M 96.871094 343.300781 C 93.839844 340.269531 97.371094 334.785156 101.632812 335.902344 C 104.371094 336.617188 105.714844 340.820312 103.902344 343.003906 C 102.363281 344.855469 98.585938 345.015625 96.871094 343.300781 Z M 97.675781 321.207031 C 93.625 316.328125 102.019531 274.296875 112.804688 245.445312 C 132.820312 191.898438 171.464844 143.207031 220.960938 109.183594 C 248.316406 90.375 276.847656 77.335938 311.015625 68.03125 C 318.058594 66.113281 318.933594 66.070312 321.175781 67.542969 C 324.429688 69.675781 324.011719 74.171875 320.394531 75.867188 C 318.972656 76.535156 309.417969 79.800781 299.164062 83.121094 C 268.625 93.015625 237.960938 109.453125 211.457031 130.128906 C 206.714844 133.828125 195.597656 144.082031 186.753906 152.914062 C 151.890625 187.730469 128.859375 225.996094 115.6875 271 C 112.476562 281.972656 108.339844 301.957031 107.417969 310.929688 C 106.417969 320.703125 101.535156 325.855469 97.675781 321.207031 Z M 579.421875 316.835938 C 578.710938 315.269531 574.011719 307.410156 568.980469 299.371094 C 558.941406 283.335938 550.925781 267.949219 547.183594 257.535156 C 545.367188 252.484375 544.75 248.519531 544.707031 241.652344 C 544.648438 232.777344 544.738281 232.421875 547.695312 229.878906 C 550.34375 227.597656 551.402344 227.332031 555.785156 227.851562 C 569.699219 229.5 582.457031 242.714844 587.175781 260.367188 C 589.617188 269.503906 589.34375 289.824219 586.613281 302.351562 C 584.640625 311.382812 581.980469 319.683594 581.054688 319.683594 C 580.867188 319.683594 580.132812 318.402344 579.421875 316.835938 Z M 537.914062 266.679688 C 530.527344 260.394531 513.285156 249.539062 505.652344 246.359375 C 498.824219 243.515625 486.710938 239.765625 476.285156 237.265625 C 473.292969 236.546875 473.410156 236.441406 479.390625 234.484375 C 488.480469 231.511719 504.941406 230.855469 512.140625 233.183594 C 522.941406 236.679688 530.675781 243.265625 535.828125 253.359375 C 538.195312 258 542.285156 269.058594 541.800781 269.515625 C 541.65625 269.652344 539.910156 268.375 537.914062 266.679688 Z M 398.296875 231.65625 C 391.414062 230.027344 388.664062 224.800781 393.160156 221.894531 C 394.460938 221.058594 402.824219 219.460938 412.066406 218.285156 C 431.441406 215.824219 442.734375 213.054688 463.34375 205.710938 C 501.792969 192.003906 511.878906 189.515625 524.96875 190.507812 C 532.550781 191.082031 543.214844 194.199219 543.820312 196.015625 C 544.019531 196.617188 540.449219 197.679688 535.605469 198.460938 C 522.671875 200.542969 510.683594 204.003906 495.875 209.929688 C 456.960938 225.5 448.738281 228.246094 432.535156 231.082031 C 423.082031 232.734375 404.191406 233.050781 398.296875 231.65625 Z M 384.0625 209.972656 C 376.867188 208.816406 374.539062 207.976562 373.902344 206.3125 C 373.175781 204.421875 379.492188 203.03125 395.492188 201.554688 C 421.445312 199.160156 431.980469 196.882812 465.054688 186.535156 C 493.152344 177.746094 504.332031 175.792969 515.910156 177.65625 C 522.375 178.699219 529.628906 181.492188 529.628906 182.941406 C 529.628906 183.371094 525.78125 184.054688 521.082031 184.460938 C 506.777344 185.6875 496.917969 187.996094 474.214844 195.429688 C 451.394531 202.898438 436.242188 207.015625 425.070312 208.78125 C 415.808594 210.246094 390.363281 210.984375 384.0625 209.972656 Z M 369.597656 190.800781 C 358.054688 189.085938 353.679688 188.082031 335.414062 182.957031 C 309.785156 175.765625 291.394531 173.144531 274.820312 174.320312 C 268.730469 174.753906 265.5 174.613281 265.5 173.921875 C 265.5 171.632812 274.796875 164.46875 280.601562 162.289062 C 295.347656 156.746094 315.496094 157.070312 343.015625 163.289062 C 366.535156 168.605469 375.679688 169.785156 393.421875 169.8125 C 412.875 169.839844 420.6875 168.609375 449.871094 160.921875 C 469.183594 155.835938 470.660156 155.605469 483.535156 155.59375 C 495.203125 155.582031 497.808594 155.902344 503.042969 157.980469 C 509.488281 160.542969 516.164062 165.664062 516.164062 168.046875 C 516.164062 169.097656 514.6875 169.492188 510.726562 169.5 C 500.46875 169.511719 485.585938 172.539062 464.890625 178.828125 C 431.476562 188.980469 418.589844 191.453125 397.046875 191.847656 C 385.535156 192.0625 375.519531 191.679688 369.597656 190.800781 Z M 615.808594 175.5 C 615.125 174.816406 614.5625 173.277344 614.5625 172.082031 C 614.5625 170.886719 615.125 169.347656 615.808594 168.664062 C 618.558594 165.910156 623.886719 167.910156 623.886719 171.695312 C 623.886719 175.65625 618.5 178.191406 615.808594 175.5 Z M 377.882812 162.214844 C 368.023438 161.257812 354.890625 158.753906 336.96875 154.417969 C 330.988281 152.972656 319.917969 151.253906 312.367188 150.59375 C 304.820312 149.9375 298.644531 149.082031 298.644531 148.691406 C 298.644531 147.390625 306.78125 140.609375 310.800781 138.558594 C 325.582031 131.015625 341.648438 130.742188 367.378906 137.59375 C 379.054688 140.703125 381.140625 140.941406 396.527344 140.945312 C 412.328125 140.945312 413.757812 140.769531 427.253906 137.164062 C 435.035156 135.085938 444.589844 133.078125 448.484375 132.703125 C 461.191406 131.488281 477.742188 136.46875 484.527344 143.550781 C 486.175781 145.273438 487.226562 146.984375 486.859375 147.351562 C 486.492188 147.71875 482.097656 148.398438 477.09375 148.867188 C 466.738281 149.832031 457.578125 151.652344 441.128906 156.011719 C 419.320312 161.789062 396.507812 164.027344 377.882812 162.214844 Z M 589.019531 145.839844 C 568.230469 125.058594 548.507812 110.351562 524.382812 97.652344 C 513.34375 91.839844 491.105469 82.503906 481.582031 79.6875 C 470.984375 76.546875 468.839844 74.222656 471.660156 68.953125 C 473.230469 66.015625 476.660156 66.417969 490.714844 71.191406 C 532.722656 85.449219 567.738281 107.503906 597.1875 138.253906 C 609.238281 150.839844 611.007812 153.691406 608.753906 156.90625 C 605.660156 161.324219 603.042969 159.855469 589.019531 145.839844 Z M 384.828125 128.550781 C 375.167969 126.453125 367.40625 122.140625 359.710938 114.59375 C 347.75 102.859375 343.144531 87.84375 346.671875 72.054688 C 349.347656 60.0625 354.085938 53.035156 368.890625 39.089844 C 382.636719 26.140625 389.796875 16.664062 393.449219 6.578125 L 395.683594 0.40625 L 400.445312 10.113281 C 406.085938 21.605469 411.222656 28.050781 423.308594 38.796875 C 440.621094 54.195312 445.871094 63.511719 446.554688 80.0625 C 447.226562 96.238281 443.191406 106.011719 431.386719 116.824219 C 424.582031 123.050781 417.675781 126.492188 407.75 128.59375 C 399.132812 130.421875 393.390625 130.410156 384.828125 128.550781 Z M 388.679688 90.488281 C 382.828125 86.546875 380.253906 81.773438 380.722656 75.753906 C 380.945312 72.902344 381.535156 69.640625 382.03125 68.5 C 382.785156 66.765625 382.6875 66.628906 381.417969 67.660156 C 379.019531 69.601562 377.101562 76.097656 377.8125 79.878906 C 378.589844 84.03125 381.761719 88.25 386.078125 90.882812 C 390.628906 93.660156 392.878906 93.316406 388.679688 90.488281 Z M 396.1875 72.484375 C 398.507812 70.386719 398.589844 68.136719 396.46875 65.105469 C 394.421875 62.183594 391.503906 62.171875 388.800781 65.070312 C 386.1875 67.875 386.1875 68.105469 388.835938 71.46875 C 391.308594 74.613281 393.5 74.917969 396.1875 72.484375 Z M 397.234375 56.070312 C 399.042969 52.105469 396.945312 48.304688 392.949219 48.304688 C 388.644531 48.304688 386.105469 52.109375 387.855469 55.945312 C 389.597656 59.773438 395.511719 59.851562 397.234375 56.070312 Z M 397.234375 56.070312 " fill-opacity="1" fill-rule="nonzero"/></svg>